<svg width="10" height="17" viewBox="0 0 10 17" fill="none" xmlns="http://www.w3.org/2000/svg">
<path d="M9.72849 7.83666L2.15369 0.271583C1.97849 0.0964708 1.74462 0 1.49525 0C1.24588 0 1.01201 0.0964708 0.836816 0.271583L0.278985 0.82857C-0.0839998 1.19151 -0.0839998 1.78139 0.278985 2.14378L6.63973 8.49648L0.271927 14.8562C0.0967313 15.0313 0 15.2648 0 15.5137C0 15.7629 0.0967313 15.9963 0.271927 16.1716L0.829758 16.7284C1.00509 16.9035 1.23883 17 1.4882 17C1.73757 17 1.97144 16.9035 2.14663 16.7284L9.72849 9.15643C9.9041 8.98076 10.0006 8.74622 10 8.49689C10.0006 8.24659 9.9041 8.01219 9.72849 7.83666Z" fill="white"/>
</svg>
