<svg width="56" height="51" viewBox="0 0 56 51" fill="none" xmlns="http://www.w3.org/2000/svg">
<g opacity="0.24">
<path d="M29.6506 1.80851C29.6506 0.723404 28.7543 0 27.8581 0C26.7825 0 26.0655 0.723404 26.0655 1.80851L26.2447 28.9362L26.0655 49.1915C26.0655 50.0957 26.7825 51 27.8581 51C28.7543 51 29.6506 50.2766 29.6506 49.1915L29.8299 28.9362L29.6506 1.80851Z" fill="white"/>
<path d="M54.7463 42.4999L28.9334 27.3084C28.0371 26.9467 26.9616 27.1276 26.4238 28.0319C26.0653 28.9361 26.2445 30.0212 27.1408 30.5638L52.9538 45.5744C53.3123 45.7552 53.4916 45.7552 53.8501 45.7552C54.3878 45.7552 55.1049 45.5744 55.4634 45.0318C55.8219 44.1276 55.6426 43.0425 54.7463 42.4999Z" fill="white"/>
<path d="M46.8595 38.1595C46.3217 37.2552 45.2462 36.8935 44.3499 37.4361L27.8583 47.0212L11.3667 37.4361C10.4704 37.0744 9.21559 37.2552 8.85708 38.1595C8.49856 39.0637 8.67782 40.1488 9.5741 40.6914L26.962 50.819C27.3205 50.9999 27.4998 50.9999 27.8583 50.9999C28.2168 50.9999 28.3961 50.9999 28.7546 50.819L46.1425 40.6914C47.0388 40.1488 47.3973 39.0637 46.8595 38.1595Z" fill="white"/>
<path d="M40.7648 21.3403C40.227 20.4361 39.1515 20.0744 38.2552 20.6169L27.8583 26.7659L11.3667 17.1808C10.4704 16.8191 9.21559 16.9999 8.85708 17.9042C8.49856 18.8084 8.67782 19.8935 9.5741 20.4361L26.962 30.5637C27.3205 30.7446 27.4998 30.7446 27.8583 30.7446C28.2168 30.7446 28.3961 30.7446 28.7546 30.5637L40.0477 23.8722C40.944 23.3297 41.3025 22.2446 40.7648 21.3403Z" fill="white"/>
<path d="M29.4715 28.0318C28.9337 27.1275 27.8582 26.7658 26.9619 27.3084L0.969696 42.319C0.0734128 42.8616 -0.285101 43.9467 0.252669 44.8509C0.611183 45.3935 1.32821 45.7552 1.86598 45.7552C2.22449 45.7552 2.40375 45.7552 2.76226 45.5743L28.7545 30.5637C29.6508 30.0212 30.0093 28.936 29.4715 28.0318Z" fill="white"/>
<path d="M29.4711 7.77666C28.9334 6.87241 27.8578 6.5107 26.9615 7.05326L9.57364 17.1809C8.67736 17.7235 8.31884 18.8086 8.85661 19.7128C9.21513 20.2554 9.93215 20.6171 10.4699 20.6171C10.8284 20.6171 11.0077 20.6171 11.3662 20.4362L28.7541 10.3086C29.6504 9.76602 30.0089 8.68092 29.4711 7.77666Z" fill="white"/>
<path d="M46.1425 17.1807L28.7546 7.05307C27.8583 6.69137 26.7828 6.87222 26.245 7.77648C25.8865 8.68073 26.0658 9.76584 26.962 10.3084L44.3499 20.436C44.7085 20.6169 44.8877 20.6169 45.2462 20.6169C45.784 20.6169 46.3218 20.2552 46.8595 19.7126C47.218 18.8084 47.0388 17.7233 46.1425 17.1807Z" fill="white"/>
<path d="M10.4702 17C9.39464 17 8.67761 17.7234 8.67761 18.8085V24.9574V39.0638C8.67761 39.9681 9.39464 40.8723 10.4702 40.8723C11.3665 40.8723 12.2627 40.1489 12.2627 39.0638V24.9574V18.8085C12.2627 17.7234 11.3665 17 10.4702 17Z" fill="white"/>
<path d="M45.2461 17C44.1705 17 43.4535 17.7234 43.4535 18.8085V31.1064V39.0638C43.4535 40.1489 44.3498 40.8723 45.2461 40.8723C46.1423 40.8723 47.0386 39.9681 47.0386 38.883V31.1064V18.8085C47.0386 17.9043 46.3216 17 45.2461 17Z" fill="white"/>
</g>
</svg>
