<svg width="30" height="35" viewBox="0 0 30 35" fill="none" xmlns="http://www.w3.org/2000/svg">
<path d="M17.6411 28.5413H11.432C10.9513 28.5413 10.5613 28.9313 10.5613 29.4119C10.5613 29.8929 10.9513 30.2829 11.432 30.2829H17.6411C18.1218 30.2829 18.5122 29.8929 18.5122 29.4119C18.5123 28.9313 18.1219 28.5413 17.6411 28.5413Z" fill="#FFF0D8"/>
<path d="M12.9377 33.6164C13.0558 34.398 13.7235 34.9999 14.5387 34.9999C15.353 34.9999 16.0223 34.3983 16.1399 33.6164C17.2058 33.5535 18.0529 32.6776 18.0529 31.5959H11.0204C11.0204 32.6782 11.8699 33.5548 12.9377 33.6164Z" fill="#FFF0D8"/>
<path d="M14.5386 5.02357C15.181 5.02357 15.7002 4.50364 15.7002 3.86242V1.16116C15.7002 0.519724 15.1811 0 14.5386 0C13.8969 0 13.3778 0.519724 13.3778 1.16116V3.86242C13.3778 4.50364 13.897 5.02357 14.5386 5.02357Z" fill="#FFF0D8"/>
<path d="M6.91899 6.71527C7.14702 7.02836 7.50088 7.19451 7.86054 7.19451C8.09631 7.19451 8.3354 7.12242 8.54167 6.97272C9.06005 6.59618 9.17573 5.87011 8.79919 5.35138L7.21167 3.16531C6.83414 2.647 6.10949 2.53018 5.58934 2.90785C5.0711 3.28418 4.95542 4.01046 5.33196 4.52919L6.91899 6.71527Z" fill="#FFF0D8"/>
<path d="M22.1566 23.7366C21.78 23.2183 21.0544 23.1033 20.5347 23.4799C20.0168 23.8568 19.9012 24.583 20.2788 25.1017L21.8672 27.2878C22.0938 27.6002 22.4476 27.7665 22.8075 27.7665C23.0441 27.7665 23.2823 27.6944 23.4886 27.5448C24.0069 27.1678 24.1224 26.4415 23.7451 25.9227L22.1566 23.7366Z" fill="#FFF0D8"/>
<path d="M4.09155 10.6103L1.52185 9.77453C0.906149 9.57613 0.256848 9.90999 0.0582301 10.5201C-0.140459 11.1295 0.193194 11.7849 0.803083 11.9833L3.37278 12.819C3.49279 12.8576 3.61287 12.8764 3.73188 12.8764C4.22169 12.8764 4.67635 12.5645 4.8364 12.0735C5.03502 11.4641 4.70144 10.8086 4.09155 10.6103Z" fill="#FFF0D8"/>
<path d="M28.2735 18.4681L25.7045 17.6335C25.0941 17.4366 24.4398 17.7695 24.2416 18.379C24.043 18.989 24.3775 19.6441 24.9874 19.8424L27.557 20.6769C27.6762 20.7155 27.7961 20.7341 27.9153 20.7341C28.405 20.7341 28.8597 20.4217 29.0197 19.9314C29.2179 19.3211 28.8838 18.6665 28.2735 18.4681Z" fill="#FFF0D8"/>
<path d="M3.37371 17.6335L0.803088 18.4669C0.193199 18.6647 -0.141375 19.3194 0.0573141 19.9296C0.215953 20.4206 0.671456 20.733 1.16127 20.733C1.2795 20.733 1.40093 20.7141 1.52001 20.6755L4.09014 19.8422C4.70052 19.6443 5.03503 18.9895 4.83648 18.3795C4.63928 17.7699 3.98927 17.4365 3.37371 17.6335Z" fill="#FFF0D8"/>
<path d="M25.3461 12.8764C25.4652 12.8764 25.5852 12.8576 25.7045 12.819L28.2735 11.9845C28.8837 11.7861 29.2179 11.1311 29.0197 10.5213C28.821 9.9117 28.1636 9.57854 27.557 9.77574L24.9873 10.6102C24.3774 10.8085 24.0429 11.4635 24.2415 12.0734C24.4012 12.564 24.8563 12.8764 25.3461 12.8764Z" fill="#FFF0D8"/>
<path d="M6.92055 23.736L5.33055 25.9208C4.95302 26.4395 5.06778 27.1657 5.58708 27.5428C5.79236 27.693 6.03152 27.7653 6.2682 27.7653C6.62787 27.7653 6.98173 27.5997 7.20841 27.2872L8.79835 25.1023C9.17588 24.5837 9.06112 23.8574 8.54182 23.4802C8.02486 23.1011 7.29553 23.2173 6.92055 23.736Z" fill="#FFF0D8"/>
<path d="M21.8662 3.16534L20.2787 5.35142C19.9022 5.87015 20.0178 6.59629 20.5362 6.97275C20.7425 7.12246 20.9816 7.19455 21.2173 7.19455C21.5769 7.19455 21.9307 7.02847 22.1583 6.7153L23.7459 4.52916C24.1223 4.01043 24.0067 3.28414 23.4883 2.90782C22.9669 2.52923 22.2438 2.6459 21.8662 3.16534Z" fill="#FFF0D8"/>
<path d="M22.925 15.2688C22.925 10.6362 19.1698 6.88086 14.5378 6.88086C9.90485 6.88086 6.14961 10.6362 6.14961 15.2688C6.14961 17.223 6.82174 19.0175 7.94455 20.442C8.92849 21.6904 9.86034 23.0533 10.6679 24.4248V27.211H18.36V24.4987C19.1602 23.1648 20.1946 21.6291 21.1291 20.4434C22.2529 19.0184 22.925 17.2243 22.925 15.2688Z" fill="#FFF0D8"/>
</svg>
