<svg width="28" height="26" viewBox="0 0 28 26" fill="none" xmlns="http://www.w3.org/2000/svg">
<path d="M6.08048 26H20.5249C22.0573 26 23.5269 25.3913 24.6104 24.3077C25.694 23.2242 26.3027 21.7546 26.3027 20.2222V13.2167C26.3027 12.8336 26.1505 12.4662 25.8796 12.1953C25.6088 11.9244 25.2414 11.7722 24.8583 11.7722C24.4752 11.7722 24.1078 11.9244 23.8369 12.1953C23.566 12.4662 23.4138 12.8336 23.4138 13.2167V20.2222C23.4138 20.9884 23.1094 21.7232 22.5677 22.265C22.0259 22.8067 21.2911 23.1111 20.5249 23.1111H6.08048C5.3143 23.1111 4.5795 22.8067 4.03773 22.265C3.49596 21.7232 3.19159 20.9884 3.19159 20.2222V5.77778C3.19159 5.0116 3.49596 4.2768 4.03773 3.73502C4.5795 3.19325 5.3143 2.88889 6.08048 2.88889H13.3027C13.6858 2.88889 14.0532 2.73671 14.3241 2.46582C14.595 2.19493 14.7471 1.82753 14.7471 1.44444C14.7471 1.06135 14.595 0.693954 14.3241 0.423068C14.0532 0.152182 13.6858 0 13.3027 0H6.08048C4.54812 0 3.07852 0.608728 1.99498 1.69227C0.911432 2.77582 0.302704 4.24542 0.302704 5.77778V20.2222C0.302704 21.7546 0.911432 23.2242 1.99498 24.3077C3.07852 25.3913 4.54812 26 6.08048 26Z" fill="#FFF0D8"/>
<path d="M25.2772 1.86352L13.3027 13.8524L8.5505 9.08574C8.2785 8.81375 7.9096 8.66094 7.52494 8.66094C7.14028 8.66094 6.77138 8.81375 6.49938 9.08574C6.22739 9.35774 6.07458 9.72664 6.07458 10.1113C6.07458 10.3018 6.1121 10.4904 6.18499 10.6663C6.25787 10.8423 6.36471 11.0022 6.49938 11.1369L12.2772 16.9146C12.4114 17.05 12.5712 17.1575 12.7472 17.2308C12.9232 17.3041 13.112 17.3419 13.3027 17.3419C13.4934 17.3419 13.6822 17.3041 13.8582 17.2308C14.0342 17.1575 14.194 17.05 14.3283 16.9146L27.3283 3.91463C27.6003 3.64264 27.7531 3.27373 27.7531 2.88908C27.7531 2.50442 27.6003 2.13551 27.3283 1.86352C27.0563 1.59153 26.6874 1.43872 26.3027 1.43872C25.9181 1.43872 25.5492 1.59153 25.2772 1.86352Z" fill="#FFF0D8"/>
</svg>
