<svg width="32" height="30" viewBox="0 0 32 30" fill="none" xmlns="http://www.w3.org/2000/svg">
<path d="M18.0241 2.95299C19.3033 6.89031 23.6965 10.0824 27.837 10.0824C31.9775 10.0824 32.6178 12.0554 29.2686 14.4883C25.9194 16.9211 24.2412 22.0862 25.5204 26.0235C26.7997 29.9608 25.1221 31.1799 21.7722 28.7471C18.4224 26.3143 12.992 26.3136 9.6428 28.7471C6.29364 31.1806 4.61538 29.9615 5.89463 26.0235C7.17387 22.0855 5.49628 16.9218 2.14645 14.4883C-1.20338 12.0547 -0.561753 10.0824 3.57808 10.0824C7.71792 10.0824 12.1117 6.89031 13.391 2.95299C14.6702 -0.98433 16.7448 -0.98433 18.0241 2.95299Z" fill="#FFF0D8"/>
</svg>
