<svg width="20" height="12" viewBox="0 0 20 12" fill="none" xmlns="http://www.w3.org/2000/svg">
<path d="M7.8984 5.424C8.2968 5.2236 8.598 5.0004 8.8044 4.7592C9.1716 4.3248 9.3528 3.7488 9.3528 3.0348C9.3528 2.34 9.1716 1.746 8.8092 1.248C8.2044 0.4368 7.1808 0.0216 5.7336 0H0V11.7036H5.346C5.9484 11.7036 6.5064 11.652 7.0224 11.5464C7.5384 11.4396 7.9848 11.244 8.3628 10.9584C8.6988 10.71 8.9796 10.4016 9.2028 10.038C9.5556 9.4884 9.732 8.8656 9.732 8.172C9.732 7.5 9.5772 6.9276 9.27 6.4572C8.9592 5.9868 8.5032 5.6424 7.8984 5.424ZM2.3652 2.0328H4.9476C5.5152 2.0328 5.9832 2.094 6.3504 2.2152C6.7752 2.3916 6.9876 2.7504 6.9876 3.2976C6.9876 3.7884 6.8256 4.1316 6.5052 4.3248C6.1824 4.518 5.7636 4.6152 5.25 4.6152H2.3652V2.0328ZM6.4488 9.4668C6.1632 9.6048 5.7612 9.6732 5.2464 9.6732H2.3652V6.552H5.286C5.7948 6.5556 6.1908 6.6228 6.474 6.7488C6.978 6.9768 7.2288 7.3944 7.2288 8.0052C7.2288 8.7252 6.9696 9.21 6.4488 9.4668Z" fill="#FF8820"/>
<path d="M17.3532 0.546387H12.2688V2.00319H17.3532V0.546387Z" fill="#FF8820"/>
<path d="M19.1196 6.29503C19.014 5.61703 18.7812 5.02063 18.4188 4.50583C18.0216 3.92263 17.5176 3.49543 16.9044 3.22543C16.2936 2.95423 15.606 2.81863 14.8404 2.81983C13.5552 2.81983 12.5112 3.22183 11.7036 4.01983C10.8984 4.82023 10.4952 5.97103 10.4952 7.47103C10.4952 9.07063 10.9404 10.2262 11.8356 10.9354C12.7272 11.6458 13.7568 11.9998 14.9256 11.9998C16.3404 11.9998 17.4408 11.5786 18.2268 10.7386C18.7296 10.2082 19.014 9.68623 19.0764 9.17383H16.734C16.5984 9.42703 16.4412 9.62503 16.2612 9.76903C15.9348 10.033 15.51 10.165 14.9892 10.165C14.4936 10.165 14.0736 10.0558 13.7232 9.83863C13.1448 9.49063 12.8424 8.88103 12.804 8.01343H19.1964C19.206 7.26583 19.182 6.69103 19.1196 6.29503ZM12.8616 6.51943C12.9456 5.95663 13.1496 5.51023 13.4736 5.18023C13.7976 4.85143 14.256 4.68583 14.8428 4.68463C15.384 4.68463 15.8364 4.83943 16.2048 5.15023C16.5684 5.46343 16.7736 5.91823 16.8156 6.51943H12.8616Z" fill="#FF8820"/>
</svg>
