<?xml version="1.0" encoding="UTF-8"?>
<svg id="Camada_2" data-name="Camada 2" xmlns="http://www.w3.org/2000/svg" viewBox="0 0 63.01 13.32">
  <defs>
    <style>
      .cls-1 {
        fill: #fff;
      }
    </style>
  </defs>
  <g id="Camada_2-2" data-name="Camada 2">
    <g id="Camada_1-2" data-name="Camada 1-2">
      <path class="cls-1" d="M7.13,12.02c-.8.71-1.91,1.16-3.16,1.16-.71,0-1.42-.04-2.05-.18-.62-.13-1.2-.31-1.69-.53-.18-.04-.27-.22-.22-.36l.22-.98v-.04c.09-.18.27-.22.45-.13.4.18.85.36,1.38.45.53.13,1.11.18,1.78.18.85,0,1.51-.27,1.96-.71.49-.45.76-1.07.76-1.83,0-.8-.31-1.42-.85-1.87-.53-.45-1.34-.67-2.36-.67h-.53c-.18,0-.31-.18-.31-.36v-.71c0-.09,0-.13.04-.22l2.94-3.61H.45c-.18-.04-.27-.18-.22-.36l.18-.94C.41.13.54,0,.72,0h6.81C7.71,0,7.84.18,7.84.36v.89s0,.13-.09.18l-2.98,3.65c.98.18,1.83.58,2.45,1.16.71.67,1.16,1.6,1.16,2.81s-.49,2.23-1.25,2.98h0ZM24.54,8.37V1.6h-2.23v11.31c0,.18-.18.31-.36.31h-1.16c-.18,0-.31-.13-.31-.31V1.6h-6.5c-.13,0-.22,0-.36.04h-.31c-.62.13-1.11.36-1.42.67-.36.36-.53.76-.53,1.25s.13.85.49,1.16h0c.31.31.89.58,1.65.76l1.11.27c1.25.31,2.09.71,2.72,1.29.58.62.85,1.38.85,2.32,0,1.16-.45,2.14-1.29,2.81-.8.67-1.96,1.02-3.34,1.02-.76,0-1.47-.04-2.09-.18-.62-.13-1.2-.31-1.74-.53-.13-.09-.18-.22-.18-.36l.22-.98s0-.04.04-.09c.04-.13.27-.22.4-.13.4.22.89.36,1.42.49s1.11.18,1.78.18c.94,0,1.69-.22,2.18-.58.49-.4.76-.89.76-1.51,0-.49-.13-.89-.49-1.25-.36-.31-.94-.62-1.74-.8l-1.11-.27c-1.2-.27-2.05-.67-2.63-1.25-.58-.62-.85-1.38-.85-2.36,0-.76.27-1.47.76-2.09.49-.53,1.2-.98,2.05-1.25.27-.04.53-.13.8-.13.27-.04.58-.09.85-.09h12.02c.18,0,.31.18.31.36v8.02c0,.98.31,1.83.89,2.36s1.42.85,2.45.85,1.87-.31,2.45-.85c.58-.53.89-1.38.89-2.36V.31C32.99.13,33.12,0,33.3,0h1.16c.18,0,.31.13.31.31v8.06c0,1.47-.49,2.67-1.38,3.52s-2.18,1.29-3.74,1.29-2.81-.45-3.7-1.29c-.94-.85-1.42-2.05-1.42-3.52h.01ZM37.9,1.65v9.84h2.54c1.47,0,2.58-.45,3.34-1.29.76-.85,1.16-2.09,1.16-3.65s-.4-2.81-1.16-3.65c-.76-.8-1.87-1.25-3.34-1.25,0,0-2.54,0-2.54,0ZM40.57,13.09h-4.14c-.18,0-.31-.13-.31-.31V.36C36.12.18,36.25,0,36.43,0h4.14C42.53,0,44.09.62,45.11,1.74c1.11,1.11,1.65,2.76,1.65,4.81s-.53,3.65-1.6,4.81c-1.07,1.11-2.63,1.74-4.59,1.74h0ZM49.47,13.31h-1.16c-.18,0-.31-.18-.31-.36V.36C48,.18,48.13,0,48.31,0h1.16c.18,0,.36.18.36.36v12.6c0,.18-.18.36-.36.36h0ZM54.02,10.38c.71.85,1.74,1.29,3.03,1.29s2.27-.45,2.98-1.29c.76-.89,1.16-2.14,1.16-3.74s-.4-2.81-1.16-3.7c-.71-.85-1.74-1.29-2.98-1.29s-2.32.45-3.03,1.29c-.71.89-1.11,2.14-1.11,3.7s.4,2.85,1.11,3.74h0ZM61.41,11.49c-1.07,1.16-2.54,1.83-4.36,1.83s-3.34-.67-4.36-1.83c-1.07-1.16-1.6-2.81-1.6-4.85s.53-3.65,1.6-4.81c1.02-1.16,2.49-1.83,4.36-1.83s3.3.67,4.36,1.83c1.02,1.16,1.6,2.81,1.6,4.81s-.58,3.7-1.6,4.85h0Z"/>
    </g>
  </g>
</svg>