<svg width="12" height="18" viewBox="0 0 12 18" fill="none" xmlns="http://www.w3.org/2000/svg">
<path fill-rule="evenodd" clip-rule="evenodd" d="M11.291 10.6434L0.0123206 18L0 3.14052L11.291 10.6434ZM8.72504 11.0713C6.14675 12.8065 3.56846 14.5416 0.989756 16.2768L1.0144 11.9144L1.99183 11.9268L1.97951 14.3096L7.52748 10.5949C6.97757 10.2163 6.39111 9.82487 5.80465 9.43389C5.51142 9.2384 5.23051 9.04292 4.90032 8.81088L1.0144 11.4138L1.05095 4.85186L4.92455 7.50366L7.55171 5.74387L4.80216 3.8621C3.5315 2.99432 2.28506 2.1635 1.06286 1.23494V0L5.35207 2.93272L9.45812 5.74346L5.86543 8.16281C7.06299 8.9694 8.24824 9.7879 9.43348 10.6068L8.72463 11.0713H8.72504ZM3.93479 8.16281C3.60501 7.94269 3.27482 7.71065 2.95736 7.47861C2.63949 7.2708 2.33434 7.05108 2.01647 6.81864L2.00415 9.45812L3.93479 8.16281Z" fill="white"/>
</svg>
