<svg width="1529" height="318" viewBox="0 0 1529 318" fill="none" xmlns="http://www.w3.org/2000/svg">
<path d="M173.036 286.964C153.632 303.914 126.707 314.658 96.3868 314.658C79.1649 314.658 61.9429 313.703 46.6615 310.36C31.6227 307.257 17.554 302.959 5.66849 297.707C1.30237 296.752 -0.880692 292.455 0.332119 289.113L5.66849 265.716V264.761C7.85155 260.464 12.2177 259.509 16.5838 261.658C26.2863 265.955 37.2016 270.252 50.0574 272.401C62.9132 275.505 76.9818 276.698 93.2335 276.698C113.851 276.698 129.86 270.252 140.776 259.748C152.661 249.005 159.21 234.203 159.21 216.059C159.21 196.959 151.691 182.158 138.593 171.414C125.737 160.671 106.089 155.419 81.3479 155.419H68.4921C64.126 155.419 60.9727 151.122 60.9727 146.824V129.874C60.9727 127.725 60.9727 126.77 61.943 124.622L133.256 38.4369H11.0049C6.63874 37.482 4.45568 34.1396 5.66849 29.8423L10.0346 7.4009C10.0346 3.1036 13.1879 0 17.554 0H182.739C187.105 0 190.258 4.2973 190.258 8.5946V29.8423C190.258 29.8423 190.258 32.9459 188.075 34.1396L115.792 121.279C139.563 125.577 160.181 135.126 175.22 148.973C192.441 164.968 203.357 187.171 203.357 216.059C203.357 244.946 191.471 269.297 173.036 287.203V286.964ZM595.338 199.824V38.1982H541.246V308.212C541.246 312.509 536.88 315.613 532.514 315.613H504.377C500.011 315.613 496.857 312.509 496.857 308.212V38.1982H339.192C336.038 38.1982 333.855 38.1982 330.459 39.1532H322.94C307.901 42.2568 296.016 47.7477 288.496 55.1486C279.764 63.7432 275.64 73.2928 275.64 84.991C275.64 96.6892 278.794 105.284 287.526 112.685C295.045 120.086 309.114 126.532 327.549 130.829L354.473 137.275C384.793 144.676 405.169 154.225 420.45 168.072C434.519 182.874 441.068 201.018 441.068 223.459C441.068 251.153 430.153 274.55 409.777 290.545C390.372 306.541 362.235 314.896 328.761 314.896C310.327 314.896 293.105 313.941 278.066 310.599C263.027 307.496 248.958 303.198 235.86 297.946C232.707 295.797 231.494 292.694 231.494 289.351L236.83 265.955C236.83 265.955 236.83 265 237.801 263.806C238.771 260.703 244.35 258.554 247.503 260.703C257.206 265.955 269.091 269.297 281.947 272.401C294.803 275.505 308.871 276.698 325.123 276.698C347.924 276.698 366.116 271.446 378.002 262.851C389.887 253.302 396.436 241.604 396.436 226.802C396.436 215.104 393.283 205.554 384.551 196.959C375.819 189.559 361.75 182.158 342.345 177.86L315.421 171.414C286.313 164.968 265.695 155.419 251.627 141.572C237.558 126.77 231.009 108.626 231.009 85.2297C231.009 67.0856 237.558 50.1351 249.444 35.3333C261.329 22.6802 278.551 11.9369 299.169 5.49099C305.718 4.53604 312.025 2.38739 318.574 2.38739C325.123 1.43243 332.642 0.238739 339.192 0.238739H630.752C635.118 0.238739 638.271 4.53604 638.271 8.83333V200.302C638.271 223.698 645.79 243.991 659.859 256.644C673.928 269.297 694.303 276.937 719.287 276.937C744.271 276.937 764.646 269.536 778.715 256.644C792.783 243.991 800.303 223.698 800.303 200.302V7.4009C800.303 3.1036 803.456 0 807.822 0H835.959C840.325 0 843.479 3.1036 843.479 7.4009V199.824C843.479 234.919 831.593 263.568 810.005 283.86C788.417 304.153 757.127 314.658 719.287 314.658C681.447 314.658 651.127 303.914 629.539 283.86C606.738 263.568 595.095 234.919 595.095 199.824H595.338ZM919.401 39.3919V274.311H981.012C1016.67 274.311 1043.59 263.568 1062.03 243.514C1080.46 223.221 1090.16 193.617 1090.16 156.374C1090.16 119.131 1080.46 89.2883 1062.03 69.2342C1043.59 50.1351 1016.67 39.3919 981.012 39.3919H919.401ZM984.165 312.509H883.744C879.378 312.509 876.225 309.405 876.225 305.108V8.5946C876.225 4.2973 879.378 0 883.744 0H984.165C1031.71 0 1069.55 14.8018 1094.29 41.5405C1121.21 68.0405 1134.31 107.432 1134.31 156.374C1134.31 205.315 1121.46 243.514 1095.5 271.207C1069.55 297.707 1031.71 312.748 984.165 312.748V312.509ZM1200.05 317.761H1171.91C1167.54 317.761 1164.39 313.464 1164.39 309.167V8.5946C1164.39 4.2973 1167.54 0 1171.91 0H1200.05C1204.41 0 1208.78 4.2973 1208.78 8.5946V309.405C1208.78 313.703 1204.41 318 1200.05 318V317.761ZM1310.41 247.811C1327.63 268.104 1352.62 278.608 1383.91 278.608C1415.2 278.608 1438.97 267.865 1456.19 247.811C1474.63 226.563 1484.33 196.721 1484.33 158.523C1484.33 120.324 1474.63 91.4369 1456.19 70.1892C1438.97 49.8964 1413.99 39.3919 1383.91 39.3919C1353.83 39.3919 1327.63 50.1351 1310.41 70.1892C1293.19 91.4369 1283.49 121.279 1283.49 158.523C1283.49 195.766 1293.19 226.563 1310.41 247.811ZM1489.66 274.311C1463.71 302.005 1428.05 318 1383.91 318C1339.76 318 1302.89 302.005 1278.15 274.311C1252.2 246.617 1239.34 207.225 1239.34 158.523C1239.34 109.82 1252.2 71.3829 1278.15 43.6892C1302.89 15.9955 1338.55 0 1383.91 0C1429.27 0 1463.95 15.9955 1489.66 43.6892C1514.41 71.3829 1528.47 110.775 1528.47 158.523C1528.47 206.27 1514.41 246.856 1489.66 274.311Z" fill="#171717"/>
</svg>
