<svg width="9" height="15" viewBox="0 0 9 15" fill="none" xmlns="http://www.w3.org/2000/svg">
<path d="M0.244362 8.0853L7.06168 14.7604C7.21935 14.9149 7.42984 15 7.65427 15C7.87871 15 8.08919 14.9149 8.24687 14.7604L8.74891 14.2689C9.0756 13.9487 9.0756 13.4282 8.74891 13.1084L3.02425 7.50311L8.75526 1.89157C8.91294 1.73706 9 1.53108 9 1.31145C9 1.09158 8.91294 0.885602 8.75526 0.730968L8.25322 0.239632C8.09542 0.0851203 7.88506 9.74714e-08 7.66062 1.17092e-07C7.43619 1.36713e-07 7.22571 0.0851204 7.06803 0.239632L0.244362 6.9208C0.0863116 7.0758 -0.000496585 7.28275 1.25192e-06 7.50274C-0.000496547 7.7236 0.0863117 7.93042 0.244362 8.0853Z" fill="#FF8820"/>
</svg>
